<svg width="1440" height="718" viewBox="0 0 1440 718" fill="none" xmlns="http://www.w3.org/2000/svg">
<g filter="url(#filter0_i_1104_5)">
<path fill-rule="evenodd" clip-rule="evenodd" d="M-399 -509H1717C1717 -509 1711.5 -20.5 1671.5 282.5C1652.37 427.418 1576 548.35 1454 606C834.999 898.5 626.5 478.5 155 692C-22.6019 772.42 -298.5 660 -345.5 386C-382.489 170.359 -399 -509 -399 -509Z" fill="url(#paint0_linear_1104_5)"/>
<path fill-rule="evenodd" clip-rule="evenodd" d="M-399 -509H1717C1717 -509 1711.5 -20.5 1671.5 282.5C1652.37 427.418 1576 548.35 1454 606C834.999 898.5 626.5 478.5 155 692C-22.6019 772.42 -298.5 660 -345.5 386C-382.489 170.359 -399 -509 -399 -509Z" fill="url(#paint1_linear_1104_5)"/>
<path fill-rule="evenodd" clip-rule="evenodd" d="M-399 -509H1717C1717 -509 1711.5 -20.5 1671.5 282.5C1652.37 427.418 1576 548.35 1454 606C834.999 898.5 626.5 478.5 155 692C-22.6019 772.42 -298.5 660 -345.5 386C-382.489 170.359 -399 -509 -399 -509Z" fill="#37475A"/>
</g>
<defs>
<filter id="filter0_i_1104_5" x="-399" y="-509" width="2116" height="1227.44" filterUnits="userSpaceOnUse" color-interpolation-filters="sRGB">
<feFlood flood-opacity="0" result="BackgroundImageFix"/>
<feBlend mode="normal" in="SourceGraphic" in2="BackgroundImageFix" result="shape"/>
<feColorMatrix in="SourceAlpha" type="matrix" values="0 0 0 0 0 0 0 0 0 0 0 0 0 0 0 0 0 0 127 0" result="hardAlpha"/>
<feOffset dy="1"/>
<feGaussianBlur stdDeviation="14"/>
<feComposite in2="hardAlpha" operator="arithmetic" k2="-1" k3="1"/>
<feColorMatrix type="matrix" values="0 0 0 0 0.176998 0 0 0 0 0.176998 0 0 0 0 0.176998 0 0 0 0.01 0"/>
<feBlend mode="normal" in2="shape" result="effect1_innerShadow_1104_5"/>
</filter>
<linearGradient id="paint0_linear_1104_5" x1="-198.491" y1="336" x2="91.6609" y2="993.156" gradientUnits="userSpaceOnUse">
<stop stop-color="#48A0AF"/>
<stop offset="1" stop-color="#3386BA"/>
</linearGradient>
<linearGradient id="paint1_linear_1104_5" x1="-198.491" y1="336" x2="91.6609" y2="993.156" gradientUnits="userSpaceOnUse">
<stop stop-color="#37475A"/>
<stop offset="1" stop-color="#FF9900"/>
</linearGradient>
</defs>
</svg>
