<svg width="450" height="560" viewBox="0 0 450 560" fill="none" xmlns="http://www.w3.org/2000/svg">
<g filter="url(#filter0_i_1104_411)">
<path fill-rule="evenodd" clip-rule="evenodd" d="M-112 -59H956C956 -59 953.224 187.551 933.035 340.479C923.379 413.621 884.834 474.657 823.257 503.753C510.831 651.381 405.596 439.402 167.618 547.158C77.9779 587.747 -61.2749 531.007 -84.997 392.717C-103.666 283.88 -112 -59 -112 -59Z" fill="url(#paint0_linear_1104_411)"/>
<path fill-rule="evenodd" clip-rule="evenodd" d="M-112 -59H956C956 -59 953.224 187.551 933.035 340.479C923.379 413.621 884.834 474.657 823.257 503.753C510.831 651.381 405.596 439.402 167.618 547.158C77.9779 587.747 -61.2749 531.007 -84.997 392.717C-103.666 283.88 -112 -59 -112 -59Z" fill="#37475A"/>
</g>
<defs>
<filter id="filter0_i_1104_411" x="-112" y="-59" width="1068" height="620" filterUnits="userSpaceOnUse" color-interpolation-filters="sRGB">
<feFlood flood-opacity="0" result="BackgroundImageFix"/>
<feBlend mode="normal" in="SourceGraphic" in2="BackgroundImageFix" result="shape"/>
<feColorMatrix in="SourceAlpha" type="matrix" values="0 0 0 0 0 0 0 0 0 0 0 0 0 0 0 0 0 0 127 0" result="hardAlpha"/>
<feOffset dy="1"/>
<feGaussianBlur stdDeviation="14"/>
<feComposite in2="hardAlpha" operator="arithmetic" k2="-1" k3="1"/>
<feColorMatrix type="matrix" values="0 0 0 0 0.176998 0 0 0 0 0.176998 0 0 0 0 0.176998 0 0 0 0.01 0"/>
<feBlend mode="normal" in2="shape" result="effect1_innerShadow_1104_411"/>
</filter>
<linearGradient id="paint0_linear_1104_411" x1="-10.7977" y1="367.481" x2="135.642" y2="699.158" gradientUnits="userSpaceOnUse">
<stop stop-color="#48A0AF"/>
<stop offset="1" stop-color="#3386BA"/>
</linearGradient>
</defs>
</svg>
