<svg width="109" height="112" viewBox="0 0 109 112" fill="none" xmlns="http://www.w3.org/2000/svg">
<path d="M85.0461 39.7919C83.3041 40.5897 81.5462 41.1788 79.6847 41.4352C76.1386 41.924 73.255 40.8349 71.1913 37.8509C70.4748 36.8143 69.8904 35.6853 69.1834 34.6408C68.478 33.5978 67.736 32.5708 66.9335 31.601C65.8794 30.3288 64.4303 30.0151 62.8524 30.1361C61.4177 30.2476 59.9846 30.4498 58.5499 30.4641C55.8908 30.4912 53.5803 29.5438 51.6154 27.7365C49.2827 25.5916 47.9913 22.9388 47.5104 19.8195C46.926 16.033 47.6091 12.4375 49.0948 8.98857C53.2762 -0.713408 64.0816 0.00790816 65.7567 0.0142774C69.8681 0.0302006 73.86 0.703749 77.7119 2.18301C80.2627 3.16228 82.7659 4.22436 84.9903 5.84375C89.0046 8.76405 92.108 12.42 93.9137 17.0887C94.6525 18.9979 95.0203 20.9962 95.2018 23.0408C95.3834 25.0789 95.1684 27.0645 94.6684 29.0294C93.8293 32.3239 92.0554 35.0118 89.358 37.0866C88.0189 38.1152 86.6272 39.0658 85.0445 39.7903L85.0461 39.7919Z" fill="#FFB800"/>
<path d="M85.0461 39.7919C83.3041 40.5897 81.5462 41.1788 79.6847 41.4352C76.1386 41.924 73.255 40.8349 71.1913 37.8509C70.4748 36.8143 69.8904 35.6853 69.1834 34.6408C68.478 33.5978 67.736 32.5708 66.9335 31.601C65.8794 30.3288 64.4303 30.0151 62.8524 30.1361C61.4177 30.2476 59.9846 30.4498 58.5499 30.4641C55.8908 30.4912 53.5803 29.5438 51.6154 27.7365C49.2827 25.5916 47.9913 22.9388 47.5104 19.8195C46.926 16.033 47.6091 12.4375 49.0948 8.98857C53.2762 -0.713408 64.0816 0.00790816 65.7567 0.0142774C69.8681 0.0302006 73.86 0.703749 77.7119 2.18301C80.2627 3.16228 82.7659 4.22436 84.9903 5.84375C89.0046 8.76405 92.108 12.42 93.9137 17.0887C94.6525 18.9979 95.0203 20.9962 95.2018 23.0408C95.3834 25.0789 95.1684 27.0645 94.6684 29.0294C93.8293 32.3239 92.0554 35.0118 89.358 37.0866C88.0189 38.1152 86.6272 39.0658 85.0445 39.7903L85.0461 39.7919Z" fill="url(#paint0_linear_1104_109)"/>
<path d="M34.5711 52.5719C36.6968 51.9843 38.7987 51.5814 40.9403 51.3442C43.6106 51.0496 46.2873 50.8633 48.9688 51.0337C53.5403 51.3235 58.0322 52.0368 62.3108 53.7756C64.4859 54.6594 66.5097 55.7947 68.1514 57.5048C69.3679 58.7723 70.3998 60.1768 71.2421 61.7309C72.715 64.4473 73.4761 67.3597 73.7834 70.409C73.828 70.8469 73.7898 71.2927 73.7898 71.764C74.7245 72.0331 75.613 72.2847 76.4967 72.5427C79.2132 73.3356 81.6765 74.6366 83.8548 76.4263C86.1923 78.3467 87.6334 80.8466 88.3197 83.7972C89.0856 87.0885 88.7018 90.2444 87.4327 93.3574C85.9742 96.9369 83.6701 99.8509 80.7609 102.343C78.9983 103.852 77.0302 105.039 75.0191 106.172C64.7677 111.948 58.3571 111.878 51.8795 111.5C35.6459 110.551 22.3246 100.816 19.909 98.9799C13.2468 93.9163 8.97141 87.7111 7.69597 85.4993C6.60364 83.6077 5.71991 81.638 5.3282 79.4661C5.01451 77.7304 5.29954 76.1174 6.19124 74.6031C7.06542 73.1191 8.43322 72.4535 10.0781 72.2624C11.1402 72.1398 12.1465 72.385 13.1242 72.7863C13.4076 72.9025 13.6926 73.0124 14.0318 73.1462C14.1019 72.8882 14.1656 72.6812 14.2133 72.471C14.7276 70.2179 15.4044 68.0205 16.4091 65.933C17.3613 63.9553 18.6861 62.2404 20.1622 60.6337C23.0459 57.4937 26.5808 55.36 30.5521 53.9078C31.861 53.4285 33.1953 53.0225 34.5727 52.5735L34.5711 52.5719Z" fill="#FFB800"/>
<path d="M34.5711 52.5719C36.6968 51.9843 38.7987 51.5814 40.9403 51.3442C43.6106 51.0496 46.2873 50.8633 48.9688 51.0337C53.5403 51.3235 58.0322 52.0368 62.3108 53.7756C64.4859 54.6594 66.5097 55.7947 68.1514 57.5048C69.3679 58.7723 70.3998 60.1768 71.2421 61.7309C72.715 64.4473 73.4761 67.3597 73.7834 70.409C73.828 70.8469 73.7898 71.2927 73.7898 71.764C74.7245 72.0331 75.613 72.2847 76.4967 72.5427C79.2132 73.3356 81.6765 74.6366 83.8548 76.4263C86.1923 78.3467 87.6334 80.8466 88.3197 83.7972C89.0856 87.0885 88.7018 90.2444 87.4327 93.3574C85.9742 96.9369 83.6701 99.8509 80.7609 102.343C78.9983 103.852 77.0302 105.039 75.0191 106.172C64.7677 111.948 58.3571 111.878 51.8795 111.5C35.6459 110.551 22.3246 100.816 19.909 98.9799C13.2468 93.9163 8.97141 87.7111 7.69597 85.4993C6.60364 83.6077 5.71991 81.638 5.3282 79.4661C5.01451 77.7304 5.29954 76.1174 6.19124 74.6031C7.06542 73.1191 8.43322 72.4535 10.0781 72.2624C11.1402 72.1398 12.1465 72.385 13.1242 72.7863C13.4076 72.9025 13.6926 73.0124 14.0318 73.1462C14.1019 72.8882 14.1656 72.6812 14.2133 72.471C14.7276 70.2179 15.4044 68.0205 16.4091 65.933C17.3613 63.9553 18.6861 62.2404 20.1622 60.6337C23.0459 57.4937 26.5808 55.36 30.5521 53.9078C31.861 53.4285 33.1953 53.0225 34.5727 52.5735L34.5711 52.5719Z" fill="url(#paint1_linear_1104_109)"/>
<path d="M8.85684 33.4638C10.6816 33.1645 12.5064 32.8731 14.3296 32.5642C18.4696 31.8635 22.6272 31.3237 26.8102 30.9448C30.3053 30.6279 33.7877 30.1502 37.2733 29.7187C39.7541 29.413 42.1697 28.913 44.3925 27.6503C46.6711 26.3557 47.6902 24.4067 47.4705 21.8829C47.2571 19.4323 46.1489 17.4897 43.7875 16.3926C41.9929 15.5582 40.0949 15.2987 38.165 15.1808C37.493 15.1394 37.0281 14.9659 36.7192 14.3433C35.6045 12.0886 33.8036 10.6093 31.6859 9.51221C34.5632 8.09664 37.6507 7.08552 41.0391 6.67948C42.1267 6.54891 42.7047 5.89128 42.5996 4.71615C42.4945 3.53306 41.7445 3.22733 40.7286 3.25281C38.2924 3.31013 35.9596 3.92796 33.7511 4.87379C28.3181 7.20016 23.296 10.1842 18.855 14.149C15.2739 17.3448 12.0733 20.8718 9.50173 24.886C5.8394 30.6008 3.27418 36.814 2.00192 43.6323C1.779 44.5256 1.55448 45.309 1.40639 46.1052C0.632525 50.258 0.460557 54.4569 0.651635 58.6606C0.769466 61.2593 1.04016 63.8627 1.79492 66.3802C2.08153 67.3355 2.63247 68.0632 3.73435 67.8308C4.8856 67.5871 5.12923 66.6891 4.97637 65.6365C4.70567 63.7735 4.27893 61.9201 4.18976 60.0491C3.87608 53.4681 4.35855 46.9826 6.24067 40.5958C6.96836 38.1293 7.83776 35.752 8.85684 33.4686V33.4638ZM20.8549 17.0725C23.0476 15.1554 25.3166 13.3417 27.7242 11.7749C30.4582 12.3099 32.9088 14.2143 34.1555 17.0853C34.3769 17.5948 34.6014 18.1155 35.1778 18.5024C35.8689 18.8352 36.4628 18.8288 37.1348 18.7269C39.0169 18.4419 40.8799 18.7365 42.4579 19.7874C44.1983 20.9482 45.117 23.0692 42.5709 24.5835C41.3401 25.3159 40.0551 25.9624 38.6507 26.1439C35.2972 26.5786 31.9263 26.8732 28.5649 27.2395C25.8421 27.5356 23.1192 27.8445 20.3995 28.1662C17.156 28.5483 13.9411 29.1009 10.731 29.69C13.3265 24.9752 16.664 20.7364 20.8533 17.0725H20.8549ZM105.426 71.6141C104.662 71.087 103.888 71.3036 103.16 71.8227C102.741 72.122 102.595 72.5647 102.413 72.9962C101.823 74.4054 101.186 75.7796 100.499 77.1171C99.9819 75.2796 99.3847 73.4532 98.6332 71.6109C98.1475 70.267 97.6969 69.017 97.2733 67.7575C96.2176 64.6191 95.0616 61.5252 93.3769 58.659C92.5171 57.1973 91.5919 56.8008 89.955 57.0699C87.5761 57.46 85.3214 58.2864 83.0237 58.9695C75.6704 61.159 68.1722 62.858 60.9208 65.3945C56.9639 66.7782 56.0913 68.4056 57.0594 72.4517C58.8316 79.8655 60.6596 87.265 62.416 94.6836C63.1022 97.5816 63.6659 100.507 64.2949 103.419C59.9972 104.444 55.6072 105.03 51.0946 104.876C50.1504 104.844 49.6281 105.325 49.4656 106.183C49.2953 107.073 49.773 107.678 50.5548 108.014C51.1535 108.272 51.8127 108.276 52.4576 108.252C55.413 108.143 58.3476 107.928 61.2759 107.417C69.6371 105.959 77.5748 103.408 84.8644 98.9573C90.6525 95.424 95.5998 91.0037 99.6618 85.4593C100.485 84.144 101.284 82.9211 102.023 81.6632C103.504 79.1442 104.92 76.5949 105.867 73.8099C106.157 72.9596 106.229 72.1666 105.429 71.6125L105.426 71.6141ZM89.6557 91.1231C84.7259 95.3778 79.226 98.564 73.1959 100.72C71.3488 101.381 69.4874 101.995 67.6101 102.54C67.5894 102.382 67.5671 102.226 67.5384 102.07C66.1181 94.4479 64.0178 86.9815 62.3427 79.418C61.7058 76.5375 60.9144 73.6905 60.1581 70.8371C59.9208 69.9422 60.287 69.5393 61.0529 69.146C63.5226 67.8769 66.1977 67.1461 68.8346 66.4645C75.4427 64.7544 81.9632 62.7481 88.5363 60.9249C90.592 60.3548 90.6796 60.4376 91.455 62.3627C93.7973 68.1731 96.0345 74.0201 97.6905 80.0709C97.8068 80.4976 98.0153 80.8018 98.2972 81.0024C95.9565 84.7348 93.1269 88.1264 89.6573 91.1215L89.6557 91.1231ZM108.528 47.9077C108.158 46.1482 107.615 44.446 107.026 42.739C104.944 36.6994 102.235 30.9941 98.5711 25.7443C95.6731 21.5915 92.1811 18.0152 88.2704 14.8258C85.2768 12.3847 81.7992 10.7892 78.3582 9.12049C76.8646 8.39599 75.7388 8.51542 75.2293 9.59978C74.7038 10.7192 75.207 11.5727 76.8153 12.286C77.1688 12.4421 77.5302 12.5838 77.8773 12.751C79.8168 13.6793 81.7148 14.6681 83.5189 15.805C83.2227 16.1171 82.9298 16.4308 82.6415 16.7636C81.8088 17.7238 81.3502 19.0151 80.0317 18.8878C78.9346 18.7827 77.898 18.0438 76.836 17.5852C76.7962 17.5677 76.7627 17.5407 76.7245 17.52C75.5398 16.9053 74.5319 17.1155 74.0717 18.0725C73.5988 19.0534 74.0223 20.0072 75.1879 20.574C76.1529 21.0422 77.1098 21.5326 78.0955 21.9546C78.8009 22.2555 78.9139 22.738 78.7563 23.4083C78.5095 24.4497 78.2181 25.4927 78.2993 26.5755C78.3709 27.5324 77.9888 27.8748 77.0238 27.8175C75.6099 27.7347 74.1879 27.7808 72.7708 27.7538C71.7565 27.7347 71.075 28.1757 70.9842 29.1996C70.895 30.2059 71.2979 30.9081 72.4284 31.1136C73.9698 31.3922 75.5159 31.2632 77.0573 31.2664C78.1369 31.268 78.8486 31.5594 79.1687 32.6931C79.3996 33.5116 79.8375 34.2711 80.2276 35.1326C80.7339 35.951 80.0747 36.1994 79.6607 36.5099C78.2866 37.5401 76.8646 38.5083 75.5127 39.5656C74.1274 40.6483 72.594 41.5432 71.3807 42.841C70.7438 43.5225 70.6005 44.29 71.1562 45.0622C71.68 45.7899 72.4396 45.8902 73.2278 45.5463C73.6545 45.36 74.0637 45.1021 74.43 44.8138C76.8232 42.9238 79.2372 41.0607 81.7642 39.349C82.2912 38.9923 82.7928 38.5481 83.4488 39.228C84.5587 40.3792 85.8389 41.3219 87.2784 42.0305C88.014 42.3935 88.1 42.8601 87.7529 43.5957C86.8946 45.4173 86.0841 47.2628 85.3055 49.1211C84.7768 50.3822 85.1049 51.2643 86.1494 51.6815C87.2338 52.113 87.9774 51.6942 88.5363 50.4299C89.3691 48.5494 90.0028 46.5829 91.0394 44.7884C91.3834 44.1928 91.748 43.8139 92.4486 43.9556C93.7973 44.2279 95.1635 44.3266 96.5329 44.3744C97.0361 44.3919 97.3434 44.5591 97.388 45.1068C97.4612 46.0017 97.5727 46.895 97.6539 47.7899C97.845 49.9204 97.9915 52.0573 98.2287 54.183C98.38 55.5429 99.2383 56.3581 100.222 56.253C101.248 56.1416 101.784 55.4202 101.679 53.9362C101.463 50.8646 101.217 47.7931 100.845 44.7374C100.732 43.8123 101.026 43.4954 101.786 43.2581C102.316 43.091 102.824 42.8792 103.318 42.6387C104.063 44.5622 104.73 46.5081 105.111 48.5446C105.37 49.9252 105.923 50.5191 107.05 50.3519C108.106 50.1959 108.778 49.1035 108.528 47.9141V47.9077ZM96.3402 40.8776C91.9184 41.0305 88.2401 39.2567 85.2673 36.045C83.6113 34.2568 82.3979 32.1247 81.8724 29.7665C80.804 24.972 82.7243 21.152 86.1765 17.9356C86.2322 17.8846 86.2879 17.8336 86.3437 17.7827C87.5793 18.7492 88.7513 19.8193 89.8356 21.031C91.283 22.4418 92.6429 23.808 93.8594 25.3175C97.3131 29.6024 99.8752 34.3794 102.009 39.4095C100.241 40.2805 98.3561 40.8076 96.3402 40.8776ZM44.6298 5.57123C44.3495 4.88812 44.4499 4.21935 45.0279 3.6907C45.738 3.04263 46.8558 3.12224 47.4275 3.85471C48.0485 4.65246 47.7969 5.70816 46.7109 6.49795C45.6887 6.75591 44.9912 6.447 44.6298 5.56963V5.57123ZM45.9291 105.726C46.0533 106.554 45.867 107.256 44.8973 107.626C43.9817 107.823 43.219 107.739 42.8321 106.906C42.5582 106.317 42.5279 105.632 42.977 105.089C43.4626 104.5 44.1505 104.467 44.8511 104.613C45.4594 104.741 45.8384 105.12 45.9291 105.726ZM68.4572 16.9993C68.4062 16.1187 68.5352 15.356 69.6896 15.1331C70.5877 15.0359 71.2629 15.2191 71.6164 15.9993C71.9046 16.6378 71.774 17.2636 71.3823 17.8225C70.9444 18.4435 70.2868 18.4531 69.6435 18.3177C68.9588 18.1728 68.5034 17.7604 68.4588 16.9993H68.4572ZM55.7378 20.4514C58.2584 21.2587 60.6485 20.9371 62.6946 19.1139C63.2503 18.6187 63.5688 17.9594 63.7408 17.227C64.6946 13.1713 63.2105 10.7845 58.975 9.73194C58.6103 9.70328 58.3492 9.70965 58.096 9.67462C54.5069 9.16667 52.2283 12.2542 52.3032 15.4961C52.3557 17.7668 53.3891 19.6998 55.7378 20.4514ZM55.7569 15.0646C55.8461 13.9197 56.6422 13.036 57.639 12.9739C58.9845 12.8911 60.2361 13.735 60.451 14.9086C60.5115 15.2382 60.459 15.5901 60.459 15.9308C59.7759 17.1521 58.8141 17.5566 57.6724 17.3735C56.3445 17.1617 55.6661 16.2668 55.7601 15.0646H55.7569ZM20.9425 88.0245C20.4807 88.8557 19.6559 89.0292 18.8168 88.6216C18.0206 88.2347 17.2818 87.7315 16.4522 87.2427C15.9872 87.9353 15.5907 88.5898 15.1322 89.198C14.4904 90.0451 13.629 90.4193 12.6561 89.8541C11.6386 89.2649 11.6943 88.3286 12.1402 87.3764C12.2485 87.1439 12.3743 86.9099 12.5351 86.7124C13.3042 85.7761 13.3249 85.1392 12.1259 84.4068C10.4714 83.3956 10.6163 81.7667 12.3743 80.9196C13.0876 80.8177 13.5717 81.1043 14.0048 81.4658C14.9427 82.2524 15.6083 82.0215 16.0891 80.9642C16.1242 80.8861 16.1751 80.8161 16.2213 80.7428C16.9665 79.5597 18.0684 79.1696 19.0031 79.7588C19.7785 80.2476 19.8677 81.3575 19.2133 82.5437C19.0477 82.8431 18.8582 83.1329 18.6559 83.41C18.2642 83.9482 18.3375 84.3064 18.9617 84.6281C19.5301 84.9211 20.062 85.3032 20.5635 85.7045C21.3629 86.3462 21.39 87.2156 20.9409 88.0213L20.9425 88.0245ZM63.8506 49.4714C63.9239 49.0956 64.0051 48.7055 64.1755 48.3695C64.5751 47.5797 65.306 47.3026 66.1197 47.4666C66.9127 47.6275 67.4047 48.2039 67.3553 49.043C67.298 50.0175 67.1356 50.9841 67.0177 51.9522C67.661 52.449 68.4126 52.4872 69.0957 52.6862C70.6403 53.1353 70.981 53.7595 70.3998 55.4282C69.4524 56.3661 68.4317 56.1049 67.4397 55.8247C66.47 55.5508 65.8968 55.7148 65.763 56.8501C65.6834 57.5205 65.4318 58.1877 64.7216 58.53C64.1102 58.8246 63.5178 58.9616 62.9 58.5444C62.2917 58.1336 62.1182 57.546 62.2026 56.8677C62.2503 56.4871 62.3523 56.1113 62.4653 55.7435C62.7169 54.9362 62.3156 54.5286 61.6118 54.3024C61.451 54.2515 61.2727 54.2579 61.1055 54.2244C59.4224 53.8821 58.7027 53.0971 58.9781 51.9044C59.2154 50.8758 60.1373 50.543 61.7392 50.9092C63.4939 51.3105 63.4876 51.3089 63.8506 49.4729V49.4714ZM46.3861 79.6282C46.2285 78.6442 45.6648 77.7668 45.91 76.6267C46.1027 75.7302 46.0342 74.7223 45.8511 73.8115C45.2715 70.9294 45.4037 68.1429 46.367 65.342C47.687 61.5061 47.9832 57.5269 47.2253 53.5493C46.0454 47.3584 43.0932 42.3617 37.0026 39.8363C31.8021 37.6803 26.4312 37.6882 21.1368 39.3777C16.1592 40.9668 12.5367 44.1817 10.4285 49.086C9.29313 51.7277 8.69601 54.4649 8.42532 57.2721C7.96355 62.0698 9.23103 66.3005 13.043 69.4979C14.6863 70.8753 16.414 72.1603 18.2611 73.2606C20.7594 74.7478 22.5539 76.9388 24.1526 79.2731C25.03 80.5549 25.8819 81.832 27.0236 82.8877C27.4551 83.2874 27.7911 83.6934 27.7146 84.3224C27.5124 85.9879 28.3468 87.2029 29.4646 88.2793C29.7862 88.5882 30.0729 88.8812 30.0362 89.3684C29.8308 92.1613 31.7511 93.76 34.2606 94.4447C38.3704 95.5657 44.0566 94.3253 47.5581 89.7474C48.4084 88.6359 48.98 87.5118 48.7666 85.9752C48.2332 83.6934 46.7492 81.9196 46.3829 79.6298L46.3861 79.6282ZM28.4933 79.2572C26.4694 76.2684 24.3612 73.3641 21.4552 71.1141C19.8183 69.8482 17.89 69.0345 16.3439 67.6508C15.9617 67.3085 15.5891 66.9582 15.2118 66.611C12.0813 64.1445 11.6291 60.8723 11.9268 57.4282C12.2596 53.5763 13.2373 49.9299 15.8487 46.8791C18.1974 44.1371 21.2833 42.6881 24.6653 41.919C27.2162 41.3394 29.869 41.3537 32.4581 41.9493C38.6284 43.3696 42.1219 47.3998 43.7174 53.3773C44.6362 56.8231 44.2779 60.1542 43.2986 63.4917C42.9738 64.6015 42.7286 65.7353 42.3767 66.8356C41.7159 68.9088 41.9133 70.9899 42.2859 73.0631C42.5104 74.3067 42.4595 75.5487 42.3878 76.7827C42.3114 78.1123 41.3544 78.9754 40.3274 79.5868C38.2972 80.797 36.1396 81.7619 33.7224 81.9116C31.4645 82.0517 29.756 81.1234 28.4917 79.2556L28.4933 79.2572ZM32.4868 85.5293C36.3131 85.4163 39.743 84.1217 42.9133 82.0963C42.9786 83.4689 41.9881 84.1998 40.9866 84.7905C38.5678 86.2172 36.0122 87.1328 33.1524 86.2013C32.9263 86.128 32.6269 86.101 32.4868 85.5293ZM44.719 87.7108C42.848 90.1948 38.4293 92.1311 35.3737 91.1805C34.8593 91.0196 34.3339 90.8333 33.9677 90.1295C38.0774 90.0977 41.727 89.034 44.7954 86.3748C45.6409 86.9067 44.9769 87.3685 44.719 87.7124V87.7108ZM48.367 46.7342C46.6648 42.8489 43.8798 39.9828 40.1538 38.0067C39.8162 37.8284 39.4373 37.7264 39.0726 37.6038C37.7144 37.1468 37.1523 36.3172 37.5997 35.2249C38.0472 34.131 38.95 34.0912 39.9739 34.3523C42.0614 34.8842 43.8766 35.9733 45.5199 37.2726C48.0756 39.2949 50.093 41.7916 51.2841 44.8791C51.5978 45.6896 51.8541 46.5081 51.351 47.4507C49.8988 48.4778 49.031 48.2501 48.367 46.7342ZM52.62 50.6385C53.1455 51.3248 53.2554 52.1815 52.5484 52.8582C51.8939 53.484 51.0771 53.6448 50.3287 53.0397C49.437 52.32 49.4481 51.4426 50.1822 50.465C51.1185 49.715 51.9783 49.8026 52.6184 50.6369L52.62 50.6385ZM31.896 80.0677C30.9534 76.7302 29.9964 73.3991 28.7687 70.1508C28.3786 69.1173 27.8993 68.4661 26.6175 68.326C24.6685 68.1126 23.3756 66.4009 23.6303 64.8006C23.9536 62.7592 26.0395 61.7624 27.8309 62.8166C28.2703 63.0761 28.6891 63.3993 29.0474 63.7624C29.5474 64.2687 30.0346 64.3754 30.6461 63.9821C31.2066 63.6223 31.7209 63.2911 31.5489 62.4694C31.3117 61.3277 31.5505 60.3182 32.6476 59.7084C33.4613 59.2561 34.2574 59.4663 34.9246 60.0236C35.9246 60.8612 36.1603 62.0029 35.7526 63.1748C35.5233 63.8309 35.5695 64.307 35.7526 64.9725C36.888 69.0744 38.3736 73.0408 40.0471 76.9452C40.485 77.9642 40.0423 78.727 39.0487 79.1012C37.958 79.512 37.1873 79.0056 36.7749 78.012C35.4596 74.8465 34.0106 71.7335 33.111 68.4072C32.9836 67.9359 33.0632 66.8706 31.9136 67.5871C32.1699 69.7431 33.1651 71.6236 33.6683 73.6539C34.06 75.2334 34.5281 76.7939 34.939 78.3687C35.0456 78.7795 35.0791 79.211 35.1205 79.6346C35.2192 80.6569 34.7542 81.324 33.7511 81.4737C32.7129 81.6282 32.1572 80.9785 31.8992 80.0629L31.896 80.0677ZM80.6129 83.8287C80.9362 84.9657 80.4648 85.5405 78.9537 86.0405C77 86.687 75.0621 87.3876 73.1259 88.0834C72.4205 88.3366 71.7804 88.3031 71.118 87.7395C70.2724 86.0198 70.5527 85.3128 72.2214 84.7284C74.1625 84.0485 76.0908 83.3288 78.0525 82.7157C79.5015 82.2635 80.2833 82.6632 80.6145 83.8287H80.6129ZM92.0808 72.6841C92.404 73.6236 92.0474 74.4134 91.1238 74.7955C89.8977 75.3035 88.6414 75.7477 87.3803 76.1618C82.2498 77.8464 77.1146 79.5152 71.9762 81.1775C71.2023 81.4275 70.4141 81.6584 69.4683 81.539C68.3569 81.254 68.1929 80.5167 68.2566 79.6203C68.3203 78.7158 68.9317 78.4212 69.6801 78.2031C71.7358 77.6028 73.7978 77.0152 75.8344 76.3496C80.148 74.9404 84.4472 73.4867 88.7529 72.052C89.2003 71.9039 89.6446 71.7192 90.1047 71.6459C90.9996 71.5042 91.7735 71.7845 92.084 72.6841H92.0808ZM73.059 73.5854C71.2374 74.1411 69.5145 74.6729 67.798 75.2239C66.7789 75.5519 65.8283 75.1299 65.5003 74.1761C65.15 73.1571 65.6261 72.2797 66.8044 71.9103C70.0766 70.8832 73.3647 69.9071 76.6321 68.8658C80.0652 67.7702 83.4791 66.6206 86.9042 65.498C87.5156 65.2974 88.1287 65.1254 88.7911 65.1381C89.7496 65.1573 90.3738 65.6461 90.5681 66.5187C90.7783 67.4661 90.1939 68.0903 89.3484 68.3817C87.8468 68.8976 86.315 69.3307 84.8023 69.8164C80.9202 71.0631 77.0414 72.3195 73.059 73.5886V73.5854Z" fill="white"/>
<defs>
<linearGradient id="paint0_linear_1104_109" x1="71.2839" y1="0" x2="71.2839" y2="41.5476" gradientUnits="userSpaceOnUse">
<stop stop-color="#FFB800"/>
<stop offset="1" stop-color="#FF4D15"/>
</linearGradient>
<linearGradient id="paint1_linear_1104_109" x1="46.9589" y1="50.9688" x2="46.9589" y2="111.646" gradientUnits="userSpaceOnUse">
<stop stop-color="#FFB800"/>
<stop offset="1" stop-color="#FF4D15"/>
</linearGradient>
</defs>
</svg>
